<svg viewBox="0 0 800 800" xmlns="http://www.w3.org/2000/svg"><path d="M659.624679966296,380.4023483401045 L641.8117318903596,370.4497899209395 M58.45723066299814,723.6724250521811 L40.651760712659495,713.0379496708179 M659.624679966296,380.4023483401045 L58.45723066299814,723.6724250521811 M641.8117318903596,370.4497899209395 L40.651760712659495,713.0379496708179 M53.85288456904192,488.4110646264566 L35.84999063432281,477.8962287849682 M58.45723066299814,723.6724250521811 L53.85288456904192,488.4110646264566 M40.651760712659495,713.0379496708179 L35.84999063432281,477.8962287849682 M661.7783612018342,149.12465829798833 L643.7677319383984,139.29134934302994 M53.85288456904192,488.4110646264566 L661.7783612018342,149.12465829798833 M35.84999063432281,477.8962287849682 L643.7677319383984,139.29134934302994 M661.7783612018342,149.12465829798833 L659.624679966296,380.4023483401045 M643.7677319383984,139.29134934302994 L641.8117318903596,370.4497899209395" stroke="black"  stroke-width="4"  fill="red"/>
<path d="M760.8476981345855,320.7177833376735 L742.7391850164572,310.7149345731468 M156.29958526086432,665.8539552924947 L138.1920233381527,655.1578291778771 M760.8476981345855,320.7177833376735 L156.29958526086432,665.8539552924947 M742.7391850164572,310.7149345731468 L138.1920233381527,655.1578291778771 M152.76694040942218,427.2238609485124 L134.45511136205687,416.6515215186616 M156.29958526086432,665.8539552924947 L152.76694040942218,427.2238609485124 M138.1920233381527,655.1578291778771 L134.45511136205687,416.6515215186616 M764.1500093656772,86.20717911677042 L745.8371925387141,76.32757494781879 M152.76694040942218,427.2238609485124 L764.1500093656772,86.20717911677042 M134.45511136205687,416.6515215186616 L745.8371925387141,76.32757494781879 M764.1500093656772,86.20717911677042 L760.8476981345855,320.7177833376735 M745.8371925387141,76.32757494781879 L742.7391850164572,310.7149345731468" stroke="black"  stroke-width="4"  fill="red"/></svg>